<?xml version="1.0" encoding="UTF-8"?>
<svg id="Calque_1" data-name="Calque 1" xmlns="http://www.w3.org/2000/svg" viewBox="0 0 1254.2 248.66">
  <g>
    <g>
      <path d="M617.22,81.48c24.3-23.05,48.48-46.25,72.53-69.59l.82-.81" fill="#f49b1e"/>
      <path d="M692.85,8.89l.49-.4c23.97-15.99,72.63-5.79,57.79,31.49-28.35,29.96-57.73,58.76-88.15,86.41-1.23,1.37-1.06,2.35-.15,3.89,26.5,24.89,52.54,50.31,78.1,76.28,16.9,38.28-34.79,48.52-57.53,28.44l-74.29-70.66-1.62-.13-13.92,13.39c-14.04-12.76-27.8-25.89-41.27-39.38-10.47-8.51-13.9-16.44-13.3-29.79-.38-28.4-.68-57.02-.89-85.87,3.52-14.6,17.52-23.55,32.99-22.1,13.53,1.27,26.46,13.69,26.56,25.35l.61,72.29,14.85-14.46" fill="#f49b1e"/>
      <path d="M705.82,244.63l9.95-.02" fill="#f9c785"/>
    </g>
    <g>
      <path d="M479.56,92.76c-.36,25.81-.29,52.24-.04,78.12,0,.04-.45.3,0,.04.12,12.9,11.28,23.89,24.87,26.48,12.36,2.36,25.67-1.43,32.92-12.33,2.7-4.06,5.21-7.64,9.61-9.53,7.41-3.19,16.2-2.29,22.84,2.8,6.23,4.78,8.76,13.14,8.29,21.28-.42,7.11-3.28,13.16-7.16,19-9.04,13.6-22.74,21.76-38.28,26.76-11.3,3.64-23.21,3.43-34.56,3.09-36.49-2.01-65.95-28.2-72.2-64.75l-1.68-17.14-.46-71.86c-.07-11.45-7.46-20.87-15.31-28.31-17.12-16.23-46.84-16.47-63.39.63-6.99,7.23-14.02,17.06-14.11,28.06-.47,41.58-.51,83.06-.11,124.45-.03,9.79-8.56,19.14-17.36,22-9.39,3.05-17.38,2.05-25.7-2.84-4.12-2.42-7.24-6.14-9.46-10.76s-3.19-9.66-3.18-14.75l.32-123.74c4.1-34.34,23.79-61.97,53.94-77.5,13.78-7.1,27.85-9.98,43.5-10.51l8.59-.29c13.32.57,25.43,2.9,37.68,8.55,33.21,15.33,58.12,46.33,60.44,83.04Z" fill="#fff"/>
      <path d="M185.18,26.99c0-2.39.86-4.56,1.27-6.03,3.48-12.43,14.48-20.29,27.76-19.9,17.25.51,27.14,15.53,27.09,31.77-1.17,23.42-.95,48.34-.23,71.87l.03,17.98c-.92,4.64-.87,10.36-.01,14.99l.03.99c-.94,25.53-.85,52.38-.09,77.96-.02,14.8-12.94,28.06-30.3,26.52-13.83-1.23-24.33-11.36-24.72-25.54" fill="#fff"/>
      <path d="M241.04,216.62c-.32.02-.94-.36-.94-1.14v-75.7c0-.78.62-1.16,1.03-1.12l-.09,77.96Z" fill="#fff"/>
      <path d="M240.1,33.87c0-.77.62-1.16,1.2-1.04l-.23,71.87c-.36.06-.98-.34-.98-1.1" fill="#fff"/>
      <path d="M241.1,137.67c-.66-.11-1.05-.86-1.05-1.92v-11.14c0-1.07.39-1.82,1.06-1.92v14.99Z" fill="#fff"/>
      <path d="M.07,30.38C-.53,21.23,2.8,12.74,9.32,7.27,15.89,1.76,24.66-.21,33.29,1.64c.42.09.84.19,1.26.3,11.73,3.06,19.73,13.91,19.83,26.03.35,43.93.44,87.99.28,132.18-.01,3.71.86,7.38,2.62,10.65,5.34,9.89,13.58,15.86,25.56,16.46l57.94.89c11.53.18,19.76,10.97,21.48,21.26,1.46,8.78-.24,16.48-5.63,23.08-4.79,5.86-12.67,8.95-20.43,9.09-23.62-.69-48.36-.79-72.06-.23-16.17-.14-32.02-9.16-43.37-21.17S3.2,194.7.96,179.04c-.17-1.16-.24-2.33-.26-3.5L.1,141.75" fill="#fff"/>
    </g>
  </g>
  <g>
    <path d="M785.28,70.9v-8.74c-.18-3.73-.08-5.64-.2-8.43l.21-25.27c.04-4.43.97-8.9,2.75-12.38,5.85-11.42,17.22-17.56,30.2-15.78.47.06.94.14,1.41.23,13.16,2.47,22.58,14.19,22.96,27.57l.35,12.66v26.05c.03,6.77,0-.41.44,19.32.05,2.09-.29,3.82.39,5.36.39.89,1.23,1.52,2.17,1.77h.01c.6.16,1.23.25,1.85.25l76.14.14c1.81,0,3.57-.62,4.98-1.76h0c.92-.75,1.45-1.87,1.43-3.06-.33-20-.28-40,.13-60,.15-7.21,2.5-14.28,6.99-19.92.27-.33.54-.66.82-.99.1-.12.21-.23.32-.34,10.18-9.99,28-9.54,37.96-1.15,5.66,4.77,11.03,12.79,11.02,21.98l-.29,187.93c-.03,17.55-17.3,28.18-32.71,26.05-15.48-2.14-25.7-14.3-24.9-29.94.02-.41.03-.83.03-1.25-.3-15.24-.46-30.38-.45-45.59l.16-12.08c.02-.2.03-.5.04-.85.08-3.08-2.36-5.76-5.43-5.68-.14,0-.28.01-.41.03l-73.71-.19c-8.3-.79-6.87,7.09-6.71,13.28.21,17.47.42,34.88-.1,52.13-.17,5.71-1.69,11.35-4.65,16.24-5.77,9.53-15.34,15.35-27.15,13.83-12.18-1.57-25.04-10.34-25.1-23.61l-.49-97.68" fill="#fff"/>
    <path d="M1158.72,239.44l-14.1,1.42c-5.6.57-9.66.2-15.04-.01-39.58-1.53-74.4-22.97-94.31-57-9.51-16.25-15.11-33.47-16.33-52.42v-21.46c4.14-50.75,38.76-93.79,88.66-106.15,41.85-10.37,87.34,3.52,115.87,36.94,16.99,19.89,27.79,43.79,30.19,69.86,1.61,17.47-.26,36.67-6.28,53.21-11.7,32.14-37.32,57.84-69.03,70.41l-19.62,5.2ZM1133.89,185.02l6.71-.35c5.89-.3,11.74-1.37,17.26-3.44,12.61-4.72,23.32-13.76,30.62-25.59,20.67-33.51,8.51-78.07-26.34-96.55-7.4-3.92-15.61-6.21-24.07-5.8l-2.19.11c-31.27,1.51-57.56,24.96-61.43,56.03-.09.71-.16,1.41-.23,2.12-.5,5.39-.38,8.91-.01,14.22,2.03,29.13,23.28,53.58,52.29,58.88,2.12.39,5.25.48,7.39.37Z" fill="#fff"/>
  </g>
</svg>