<?xml version="1.0" encoding="UTF-8"?>
<svg id="Calque_1" data-name="Calque 1" xmlns="http://www.w3.org/2000/svg" viewBox="0 0 215.43 229">
  <defs>
    <style>
      .cls-1 {
        fill: #f49915;
      }

      .cls-2 {
        fill: #071634;
      }
    </style>
  </defs>
  <path class="cls-2" d="M206.44,219.26c-9.06,6.05-23.96,7.26-32.05-.8l-85.35-85.07c-10.42-10.39-8.02-27.55,1.83-37.38L177.17,9.88c5.72-5.7,14.45-5.96,22.06-3.72,6.39,1.88,12.78,7.2,15.28,14.59,2.79,8.97-1.06,16.68-7.46,23.07l-72,71.9,75.42,74.63c8.13,8.04,5.84,22.31-4.03,28.91Z"/>
  <path class="cls-1" d="M.07,29.41C-.53,20.27,2.8,11.78,9.32,6.3,15.89.79,24.66-1.17,33.29.68c.42.09.84.19,1.26.3,11.73,3.06,19.73,13.91,19.83,26.03.35,43.93.44,75.99.28,120.18-.01,3.71.86,7.38,2.62,10.65,5.34,9.89,13.58,15.86,25.56,16.46l29.94.89c11.53.18,19.76,10.97,21.48,21.26,1.46,8.78-.24,16.48-5.63,23.08-4.79,5.86-12.67,8.95-20.43,9.09-23.46.12-20.32.94-44.06-.23-16.17-.14-32.02-9.16-43.37-21.17S3.2,181.74.96,166.08c-.17-1.16-.24-2.33-.26-3.5L.1,128.78"/>
</svg>